<svg width="271" height="225"><path fill-rule="evenodd" d="M134.297 66.094c-2.813 2.812-5.625 2.812-8.438 0l-52.03-47.11v200.391c0 3.75-1.876 5.625-5.626 5.625-3.75 0-5.625-1.875-5.625-5.625V18.985L10.547 66.093c-2.813 2.812-5.625 2.812-8.438 0-2.812-2.813-2.812-5.625 0-8.438C42.891 20.625 63.516 1.875 63.984 1.406 64.922.47 66.328 0 68.204 0c1.874 0 3.28.469 4.218 1.406l61.875 56.25c.937.938 1.406 2.344 1.406 4.219 0 1.875-.469 3.281-1.406 4.219zm2.11 92.812c2.812-2.812 5.624-2.812 8.437 0l52.031 47.11V5.625c0-3.75 1.875-5.625 5.625-5.625s5.625 1.875 5.625 5.625v200.39l52.031-47.109c2.813-2.812 5.625-2.812 8.438 0 2.812 2.813 2.812 5.625 0 8.438-40.782 37.031-61.406 55.781-61.875 56.25-.938.937-2.344 1.406-4.219 1.406-1.875 0-3.281-.469-4.219-1.406l-61.875-56.25c-.937-.938-1.406-2.344-1.406-4.219 0-1.875.469-3.281 1.406-4.219z"/></svg>