<svg id="Layer_1" data-name="Layer 1" xmlns="http://www.w3.org/2000/svg" xmlns:xlink="http://www.w3.org/1999/xlink" viewBox="0 0 148.79 12.19"><defs><style>.cls-1{fill:#fff;}.cls-2{isolation:isolate;}.cls-3{fill:#ed392a;}.cls-4{fill:#8c898c;}.cls-5{fill:none;stroke:#d6d6d6;stroke-linecap:square;}.cls-6{mask:url(#mask);}.cls-7{mask:url(#mask-2-2);}</style><mask id="mask" x="33.53" y="1.11" width="8.21" height="9.83" maskUnits="userSpaceOnUse"><g transform="translate(-2.97 -0.95)"><g id="mask-2"><polygon id="path-1" class="cls-1" points="44.71 11.89 44.71 2.06 36.5 2.06 36.5 11.89 44.71 11.89"/></g></g></mask><mask id="mask-2-2" x="33.53" y="0.8" width="6.98" height="9.83" maskUnits="userSpaceOnUse"><g transform="translate(-2.97 -0.95)"><g id="mask-4"><polygon id="path-3" class="cls-1" points="36.5 11.59 43.48 11.59 43.48 1.76 36.5 1.76 36.5 11.59"/></g></g></mask></defs><title>watermark_red</title><g class="cls-2"><path class="cls-3" d="M52.94,5.38H52.2L52,4.27a2,2,0,0,0-.63-.41,2.27,2.27,0,0,0-.9-.16,2.19,2.19,0,0,0-1.87.88,3.66,3.66,0,0,0-.66,2.24v.12a3.74,3.74,0,0,0,.64,2.25,2.07,2.07,0,0,0,1.78.89,2.68,2.68,0,0,0,1-.17A1.86,1.86,0,0,0,52,9.51l.2-1.11h.75V9.79a2.94,2.94,0,0,1-1,.78,3.44,3.44,0,0,1-1.57.34,3.16,3.16,0,0,1-2.5-1.13,4.17,4.17,0,0,1-1-2.84V6.83a4.22,4.22,0,0,1,1-2.84,3.15,3.15,0,0,1,2.52-1.13,3.4,3.4,0,0,1,1.57.35,3,3,0,0,1,1,.78Z" transform="translate(-2.97 -0.95)"/><path class="cls-3" d="M53.93,10.12,54.8,10V3.25l-.88-.15V2.42h1.93V5.76a2.12,2.12,0,0,1,.74-.65,2,2,0,0,1,1-.23A1.88,1.88,0,0,1,59,5.44a2.47,2.47,0,0,1,.52,1.72V10l.88.15v.68H57.6v-.68l.88-.15V7.14a1.56,1.56,0,0,0-.31-1.06,1.17,1.17,0,0,0-.92-.34,1.56,1.56,0,0,0-.79.21,1.73,1.73,0,0,0-.59.56V10l.88.15v.68H53.93Z" transform="translate(-2.97 -0.95)"/><path class="cls-3" d="M61.17,10.12,62,10V5.82l-.88-.15V5h1.93v5l.88.15v.68H61.17ZM63.11,3.5H62V2.42h1.06Z" transform="translate(-2.97 -0.95)"/><path class="cls-3" d="M64.63,10.12l.88-.15V5.82l-.88-.15V5h1.82l.08.86a2.11,2.11,0,0,1,.73-.72,1.94,1.94,0,0,1,1-.25,1.9,1.9,0,0,1,1.46.55,2.42,2.42,0,0,1,.52,1.7V10l.88.15v.68H68.29v-.68l.88-.15V7.15a1.57,1.57,0,0,0-.3-1.09,1.21,1.21,0,0,0-.93-.32,1.49,1.49,0,0,0-.81.22,1.61,1.61,0,0,0-.56.6V10l.88.15v.68H64.63Z" transform="translate(-2.97 -0.95)"/><path class="cls-3" d="M75.66,10.8c0-.16-.06-.3-.07-.42s0-.25,0-.38a2.56,2.56,0,0,1-.77.65,2.19,2.19,0,0,1-2.36-.18,1.63,1.63,0,0,1-.47-1.25,1.44,1.44,0,0,1,.67-1.28,3.26,3.26,0,0,1,1.83-.45h1.09V6.82A1,1,0,0,0,75.22,6a1.27,1.27,0,0,0-.9-.3,2.19,2.19,0,0,0-.7.1,1.32,1.32,0,0,0-.49.28L73,6.7H72.2V5.58a3.14,3.14,0,0,1,1-.51,3.81,3.81,0,0,1,1.22-.19,2.43,2.43,0,0,1,1.6.5,1.77,1.77,0,0,1,.61,1.45v2.8q0,.11,0,.22c0,.07,0,.14,0,.21l.43.06v.68ZM74,10a1.89,1.89,0,0,0,1-.25,1.58,1.58,0,0,0,.62-.61v-1H74.41a1.61,1.61,0,0,0-1,.3.9.9,0,0,0-.38.73.72.72,0,0,0,.24.58A1.08,1.08,0,0,0,74,10Z" transform="translate(-2.97 -0.95)"/><path class="cls-3" d="M84.16,3a2.76,2.76,0,0,1,1.95.64,2.2,2.2,0,0,1,.7,1.7A2.2,2.2,0,0,1,86.1,7a2.77,2.77,0,0,1-1.95.64H82.5V10l.88.15v.68H80.56v-.68l.88-.15V3.81l-.88-.15V3h3.59ZM82.5,6.83h1.66a1.54,1.54,0,0,0,1.19-.43,1.52,1.52,0,0,0,.39-1.08,1.55,1.55,0,0,0-.39-1.08,1.53,1.53,0,0,0-1.19-.44H82.5Z" transform="translate(-2.97 -0.95)"/><path class="cls-3" d="M87.58,7.84a3.2,3.2,0,0,1,.7-2.12,2.58,2.58,0,0,1,3.8,0,3.19,3.19,0,0,1,.7,2.13V8a3.18,3.18,0,0,1-.7,2.13,2.59,2.59,0,0,1-3.8,0A3.19,3.19,0,0,1,87.58,8ZM88.64,8A2.75,2.75,0,0,0,89,9.48a1.4,1.4,0,0,0,2.3,0A2.74,2.74,0,0,0,91.72,8V7.84a2.74,2.74,0,0,0-.39-1.52,1.4,1.4,0,0,0-2.3,0,2.78,2.78,0,0,0-.39,1.52Z" transform="translate(-2.97 -0.95)"/><path class="cls-3" d="M95.81,5.67l-.67.12.76,2.9.12.7h0l.15-.7L97.37,5h.85l1.17,3.7.17.78h0l.16-.78.71-2.9-.68-.12V5H102v.68l-.5.07L100,10.8h-.85L98,7.26l-.24-1h0l-.23,1L96.43,10.8h-.85L94.11,5.74l-.51-.07V5h2.21Z" transform="translate(-2.97 -0.95)"/><path class="cls-3" d="M105.5,10.91a2.45,2.45,0,0,1-1.93-.81,3,3,0,0,1-.72-2.1V7.77a3,3,0,0,1,.74-2.07,2.27,2.27,0,0,1,1.75-.82,2.2,2.2,0,0,1,1.77.71,2.81,2.81,0,0,1,.6,1.89v.66h-3.77l0,0a2.3,2.3,0,0,0,.42,1.38,1.35,1.35,0,0,0,1.14.54,2.68,2.68,0,0,0,.94-.15,2.18,2.18,0,0,0,.7-.42l.41.69a2.55,2.55,0,0,1-.82.51A3.3,3.3,0,0,1,105.5,10.91Zm-.16-5.2a1.15,1.15,0,0,0-.91.45A2.12,2.12,0,0,0,104,7.28v0h2.68V7.17a1.62,1.62,0,0,0-.33-1A1.19,1.19,0,0,0,105.34,5.71Z" transform="translate(-2.97 -0.95)"/><path class="cls-3" d="M108.76,5.67V5h1.82l.1.84a2,2,0,0,1,.61-.7,1.41,1.41,0,0,1,.83-.25l.26,0,.2,0-.14,1-.6,0a1.21,1.21,0,0,0-.7.2,1.27,1.27,0,0,0-.44.55V10l.88.15v.68h-2.81v-.68l.88-.15V5.82Z" transform="translate(-2.97 -0.95)"/><path class="cls-3" d="M119.54,3a2.76,2.76,0,0,1,1.95.64,2.2,2.2,0,0,1,.7,1.7,2.2,2.2,0,0,1-.7,1.7,2.77,2.77,0,0,1-1.95.64h-1.66V10l.88.15v.68h-2.81v-.68l.88-.15V3.81l-.88-.15V3h3.59Zm-1.66,3.86h1.66a1.54,1.54,0,0,0,1.19-.43,1.52,1.52,0,0,0,.39-1.08,1.55,1.55,0,0,0-.39-1.08,1.53,1.53,0,0,0-1.19-.44h-1.66Z" transform="translate(-2.97 -0.95)"/><path class="cls-3" d="M123,5.67V5h1.82l.1.84a2,2,0,0,1,.61-.7,1.41,1.41,0,0,1,.83-.25l.26,0,.2,0-.14,1-.6,0a1.21,1.21,0,0,0-.7.2,1.27,1.27,0,0,0-.44.55V10l.88.15v.68H123v-.68l.88-.15V5.82Z" transform="translate(-2.97 -0.95)"/><path class="cls-3" d="M127.47,7.84a3.2,3.2,0,0,1,.7-2.12,2.58,2.58,0,0,1,3.8,0,3.19,3.19,0,0,1,.7,2.13V8a3.18,3.18,0,0,1-.7,2.13,2.59,2.59,0,0,1-3.8,0,3.19,3.19,0,0,1-.7-2.12Zm1.06.12a2.75,2.75,0,0,0,.39,1.53,1.4,1.4,0,0,0,2.3,0A2.74,2.74,0,0,0,131.62,8V7.84a2.74,2.74,0,0,0-.39-1.52,1.4,1.4,0,0,0-2.3,0,2.78,2.78,0,0,0-.39,1.52Z" transform="translate(-2.97 -0.95)"/><path class="cls-3" d="M135.44,11.28a1.93,1.93,0,0,1-.46,1.38,1.68,1.68,0,0,1-1.28.49l-.31,0-.29-.07.07-.83.22,0,.24,0a.7.7,0,0,0,.56-.24,1.16,1.16,0,0,0,.21-.77V5.82l-.87-.15V5h1.93Zm0-7.8h-1.06V2.42h1.06Z" transform="translate(-2.97 -0.95)"/><path class="cls-3" d="M139.36,10.91a2.45,2.45,0,0,1-1.93-.81,3,3,0,0,1-.72-2.1V7.77a3,3,0,0,1,.74-2.07,2.27,2.27,0,0,1,1.75-.82,2.2,2.2,0,0,1,1.77.71,2.81,2.81,0,0,1,.6,1.89v.66h-3.77l0,0a2.3,2.3,0,0,0,.42,1.38,1.35,1.35,0,0,0,1.14.54,2.68,2.68,0,0,0,.94-.15,2.18,2.18,0,0,0,.7-.42l.41.69a2.55,2.55,0,0,1-.82.51A3.3,3.3,0,0,1,139.36,10.91Zm-.16-5.2a1.15,1.15,0,0,0-.91.45,2.12,2.12,0,0,0-.46,1.13v0h2.68V7.17a1.62,1.62,0,0,0-.33-1A1.19,1.19,0,0,0,139.2,5.71Z" transform="translate(-2.97 -0.95)"/><path class="cls-3" d="M145.23,10.08a1.42,1.42,0,0,0,.93-.32,1,1,0,0,0,.4-.8h1V9a1.63,1.63,0,0,1-.67,1.33,2.45,2.45,0,0,1-1.62.58,2.34,2.34,0,0,1-1.94-.83A3.2,3.2,0,0,1,142.63,8V7.78a3.19,3.19,0,0,1,.67-2.07,2.34,2.34,0,0,1,1.93-.83,3.24,3.24,0,0,1,1.25.23,2.54,2.54,0,0,1,.92.63l0,1.29h-.84l-.23-.91a1.4,1.4,0,0,0-.48-.3,1.85,1.85,0,0,0-.67-.11,1.27,1.27,0,0,0-1.19.6,2.82,2.82,0,0,0-.36,1.47V8A2.85,2.85,0,0,0,144,9.49,1.28,1.28,0,0,0,145.23,10.08Z" transform="translate(-2.97 -0.95)"/><path class="cls-3" d="M150.4,3.58V5h1.1v.78h-1.1V9.3a.79.79,0,0,0,.17.57A.61.61,0,0,0,151,10l.31,0,.29-.05.14.72a1.35,1.35,0,0,1-.44.16,2.79,2.79,0,0,1-.58.06,1.37,1.37,0,0,1-1-.39,1.69,1.69,0,0,1-.38-1.22V5.77h-.92V5h.92V3.58Z" transform="translate(-2.97 -0.95)"/></g><g class="cls-2"><path class="cls-4" d="M9,8.48a2.88,2.88,0,0,1-.92,1.92,3,3,0,0,1-2,.67,2.75,2.75,0,0,1-2.22-1A4,4,0,0,1,3,7.42V6.66a4.46,4.46,0,0,1,.39-1.92,2.91,2.91,0,0,1,1.1-1.27A3.07,3.07,0,0,1,6.12,3a2.83,2.83,0,0,1,2,.7A2.91,2.91,0,0,1,9,5.65H8A2.25,2.25,0,0,0,7.37,4.3a1.76,1.76,0,0,0-1.25-.42,1.84,1.84,0,0,0-1.55.73A3.35,3.35,0,0,0,4,6.69v.76a3.45,3.45,0,0,0,.53,2A1.72,1.72,0,0,0,6,10.22a2,2,0,0,0,1.32-.39A2.16,2.16,0,0,0,8,8.48Z" transform="translate(-2.97 -0.95)"/><path class="cls-4" d="M12.71,7.47a4.85,4.85,0,0,1-1.93-.94,1.79,1.79,0,0,1-.6-1.37,1.89,1.89,0,0,1,.74-1.53A2.93,2.93,0,0,1,12.83,3a3.2,3.2,0,0,1,1.44.31,2.37,2.37,0,0,1,1,.86,2.2,2.2,0,0,1,.35,1.2h-1a1.43,1.43,0,0,0-.45-1.12,1.83,1.83,0,0,0-1.27-.41,1.88,1.88,0,0,0-1.19.34,1.12,1.12,0,0,0-.43.93,1,1,0,0,0,.41.81A4,4,0,0,0,13,6.56a6.42,6.42,0,0,1,1.53.6,2.32,2.32,0,0,1,.82.77,2,2,0,0,1,.27,1,1.83,1.83,0,0,1-.74,1.52,3.16,3.16,0,0,1-2,.57,3.67,3.67,0,0,1-1.5-.31,2.53,2.53,0,0,1-1.08-.85,2.06,2.06,0,0,1-.38-1.22h1a1.35,1.35,0,0,0,.52,1.12,2.21,2.21,0,0,0,1.4.41,2,2,0,0,0,1.25-.33A1.08,1.08,0,0,0,14.57,9a1.06,1.06,0,0,0-.4-.89A4.65,4.65,0,0,0,12.71,7.47Z" transform="translate(-2.97 -0.95)"/><path class="cls-4" d="M18,11H17V3.14h1Z" transform="translate(-2.97 -0.95)"/><path class="cls-4" d="M22.22,7.47a4.85,4.85,0,0,1-1.93-.94,1.79,1.79,0,0,1-.6-1.37,1.89,1.89,0,0,1,.74-1.53A2.93,2.93,0,0,1,22.35,3a3.2,3.2,0,0,1,1.44.31,2.37,2.37,0,0,1,1,.86,2.2,2.2,0,0,1,.35,1.2h-1a1.43,1.43,0,0,0-.45-1.12,1.83,1.83,0,0,0-1.27-.41,1.88,1.88,0,0,0-1.19.34,1.12,1.12,0,0,0-.43.93,1,1,0,0,0,.41.81,4,4,0,0,0,1.38.61,6.42,6.42,0,0,1,1.53.6,2.32,2.32,0,0,1,.82.77,2,2,0,0,1,.27,1,1.83,1.83,0,0,1-.74,1.52,3.16,3.16,0,0,1-2,.57,3.67,3.67,0,0,1-1.5-.31,2.53,2.53,0,0,1-1.08-.85,2.06,2.06,0,0,1-.38-1.22h1A1.35,1.35,0,0,0,21,9.81a2.21,2.21,0,0,0,1.4.41,2,2,0,0,0,1.25-.33A1.08,1.08,0,0,0,24.09,9a1.06,1.06,0,0,0-.4-.89A4.65,4.65,0,0,0,22.22,7.47Z" transform="translate(-2.97 -0.95)"/></g><path id="Line" class="cls-5" d="M30.67,12.5v-11" transform="translate(-2.97 -0.95)"/><g class="cls-6"><path id="Fill-1" class="cls-3" d="M42.42,5.2H42L42,4.89H39.27V7.5h.54V5.7A.24.24,0,0,1,40,5.46h2.14a.24.24,0,0,1,.24.24v2h0v0a.24.24,0,0,1-.24.24H40.29V9.67l.31.06v.37H39.49V9.73l.31-.06V8H39a.24.24,0,0,1-.24-.24V4.65A.24.24,0,0,1,39,4.41h3L42,4.1h.38ZM36.5,11.89h8.21V2.06H36.5Z" transform="translate(-2.97 -0.95)"/></g><g class="cls-7"><polygon id="Fill-4" class="cls-3" points="37.32 6.54 38.97 6.54 38.97 4.98 37.32 4.98 37.32 6.54"/></g><g class="cls-6"><path id="Fill-1-2" data-name="Fill-1" class="cls-3" d="M42.42,5.2H42L42,4.89H39.27V7.5h.54V5.7A.24.24,0,0,1,40,5.46h2.14a.24.24,0,0,1,.24.24v2h0v0a.24.24,0,0,1-.24.24H40.29V9.67l.31.06v.37H39.49V9.73l.31-.06V8H39a.24.24,0,0,1-.24-.24V4.65A.24.24,0,0,1,39,4.41h3L42,4.1h.38ZM36.5,11.89h8.21V2.06H36.5Z" transform="translate(-2.97 -0.95)"/></g><g class="cls-7"><polygon id="Fill-4-2" data-name="Fill-4" class="cls-3" points="37.32 6.54 38.97 6.54 38.97 4.98 37.32 4.98 37.32 6.54"/></g></svg>